<svg width="56" height="22" viewBox="0 0 56 22" fill="none" xmlns="http://www.w3.org/2000/svg">
<path d="M45 0C51.0753 0 56 4.9247 56 11C56 17.0753 51.0753 22 45 22C43.0561 22.0031 41.1463 21.4887 39.467 20.5095L34.0044 22L35.4916 16.5352C34.5116 14.8554 33.9968 12.9448 34 11C34 4.9247 38.9247 0 45 0ZM41.2512 5.83L41.0312 5.8388C40.8888 5.84747 40.7496 5.88489 40.622 5.9488C40.5027 6.01637 40.3938 6.10084 40.2986 6.1996C40.1666 6.3239 40.0918 6.4317 40.0115 6.5362C39.6046 7.06519 39.3856 7.71464 39.3889 8.38199C39.3911 8.92099 39.5319 9.44569 39.7519 9.93629C40.2018 10.9285 40.9421 11.979 41.9189 12.9525C42.1543 13.1868 42.3853 13.4222 42.6339 13.6411C43.8476 14.7097 45.294 15.4803 46.8579 15.8917L47.4827 15.9874C47.6862 15.9984 47.8897 15.983 48.0943 15.9731C48.4147 15.9566 48.7275 15.8698 49.0106 15.719C49.1547 15.6448 49.2952 15.564 49.4319 15.477C49.4319 15.477 49.4792 15.4462 49.5694 15.378C49.7179 15.268 49.8092 15.1899 49.9324 15.0612C50.0237 14.9666 50.1029 14.8555 50.1634 14.729C50.2492 14.5497 50.335 14.2076 50.3702 13.9227C50.3966 13.7049 50.3889 13.5861 50.3856 13.5124C50.3812 13.3947 50.2833 13.2726 50.1766 13.2209L49.5364 12.9338C49.5364 12.9338 48.5794 12.5169 47.9942 12.2507C47.933 12.224 47.8674 12.2087 47.8006 12.2056C47.7253 12.1979 47.6493 12.2063 47.5776 12.2304C47.5059 12.2545 47.4401 12.2937 47.3848 12.3453C47.3793 12.3431 47.3056 12.4058 46.5103 13.3694C46.4647 13.4307 46.4018 13.4771 46.3297 13.5026C46.2576 13.528 46.1796 13.5314 46.1055 13.5124C46.0338 13.4932 45.9636 13.4689 45.8954 13.4398C45.759 13.3826 45.7117 13.3606 45.6182 13.321C44.9869 13.0455 44.4024 12.6733 43.8857 12.2177C43.7471 12.0967 43.6184 11.9647 43.4864 11.8371C43.0537 11.4226 42.6765 10.9538 42.3644 10.4423L42.2995 10.3378C42.2529 10.2676 42.2152 10.1918 42.1873 10.1123C42.1455 9.95059 42.2544 9.82079 42.2544 9.82079C42.2544 9.82079 42.5217 9.52819 42.646 9.36979C42.767 9.21579 42.8693 9.06619 42.9353 8.95949C43.0651 8.75049 43.1058 8.53599 43.0376 8.36989C42.7296 7.6175 42.4106 6.8684 42.0828 6.1248C42.0179 5.9774 41.8254 5.8718 41.6505 5.8509C41.5911 5.8443 41.5317 5.8377 41.4723 5.8333C41.3246 5.82596 41.1766 5.82743 41.029 5.8377L41.2501 5.8289L41.2512 5.83Z" fill="#ECF7F5"/>
<path d="M11 0C4.928 0 0 4.928 0 11C0 17.072 4.928 22 11 22C17.072 22 22 17.072 22 11C22 4.928 17.072 0 11 0ZM16.104 7.48C15.939 9.218 15.224 13.442 14.861 15.389C14.707 16.214 14.399 16.489 14.113 16.522C13.475 16.577 12.991 16.104 12.375 15.697C11.407 15.059 10.857 14.663 9.922 14.047C8.833 13.332 9.537 12.936 10.164 12.298C10.329 12.133 13.145 9.57 13.2 9.339C13.2076 9.30401 13.2066 9.26769 13.197 9.23318C13.1875 9.19868 13.1696 9.16704 13.145 9.141C13.079 9.086 12.991 9.108 12.914 9.119C12.815 9.141 11.275 10.164 8.272 12.188C7.832 12.485 7.436 12.639 7.084 12.628C6.688 12.617 5.94 12.408 5.379 12.221C4.686 12.001 4.147 11.88 4.191 11.495C4.213 11.297 4.488 11.099 5.005 10.89C8.217 9.493 10.351 8.569 11.418 8.129C14.476 6.853 15.103 6.633 15.521 6.633C15.609 6.633 15.818 6.655 15.95 6.765C16.06 6.853 16.093 6.974 16.104 7.062C16.093 7.128 16.115 7.326 16.104 7.48Z" fill="#ECF7F5"/>
</svg>
